<svg width="30" height="30" fill="#B99F65" viewBox="0 -1 400.72 400"  xmlns="http://www.w3.org/2000/svg"><path d="m296.359375 271.078125-73.375-73.375 89.375-89.375 49.105469 49.105469 36.238281-157.074219-157.070313 36.25 49.101563 49.09375-89.375 89.375-89.367187-89.375 49.097656-49.09375-157.074219-36.25 36.25 157.074219 49.09375-49.097656 89.375 89.367187-73.375 73.375-14.496094-14.492187-89.863281 67.382812 74.089844 74.09375 67.390625-89.855469-14.496094-14.503906 73.375-73.375 73.375 73.375-14.503906 14.503906 67.394531 89.855469 74.09375-74.09375-89.855469-67.394531zm7.730469-216.277344 50.925781-11.753906-11.757813 50.929687-19.585937-19.585937-11.3125-11.320313zm-246.632813 39.175781-11.753906-50.929687 50.929687 11.753906-8.273437 8.269531-22.632813 22.632813zm13.175781 255.367188-21.914062-21.902344 38.136719-28.609375 12.375 12.375zm259.464844 0-28.609375-38.144531 12.375-12.375 38.144531 28.609375zm0 0"/></svg>