<svg width="30" height="30" fill="#B99F65" viewBox="-24 0 384 384" xmlns="http://www.w3.org/2000/svg"><path d="m48 352h-48v32h192c61.761719 0 112-50.238281 112-112v-16h32v-128h-32v-16c0-61.761719-50.238281-112-112-112h-192v32h48c8.824219 0 16 7.175781 16 16v288c0 8.824219-7.175781 16-16 16zm256-128h-32v-64h32zm-32-112v16h-32v128h32v16c0 44.113281-35.886719 80-80 80h-34.800781c1.785156-5.015625 2.800781-10.382812 2.800781-16v-288c0-5.617188-1.023438-10.984375-2.800781-16h34.800781c44.113281 0 80 35.886719 80 80zm-176-80h16c8.824219 0 16 7.175781 16 16v288c0 8.824219-7.175781 16-16 16h-18.800781c1.785156-5.015625 2.800781-10.382812 2.800781-16v-288c0-5.617188-1.023438-10.984375-2.800781-16zm0 0"/></svg>