<?xml version="1.0" encoding="UTF-8" standalone="yes"?>
<svg xmlns="http://www.w3.org/2000/svg" viewBox="0 0 128 128" width="30" height="30" fill="#b8b7ad">
 <path d="M 55.900391 3.5 C 54.400391 3.6 53.2 4.6992188 53 6.1992188 C 52.8 7.7992188 53.900391 9.2003906 55.400391 9.4003906 C 60.400391 11.200391 99.400781 30.600391 103.80078 53.900391 C 104.10078 55.300391 105.29922 56.300781 106.69922 56.300781 C 106.89922 56.300781 107.10078 56.299219 107.30078 56.199219 C 108.90078 55.899219 109.99922 54.299219 109.69922 52.699219 C 106.99922 37.999219 92.899609 25.400391 81.599609 17.400391 C 70.899609 10.000391 58.100391 3.5 55.900391 3.5 z M 44.675781 14.962891 C 43.825781 14.875391 42.950781 15.150781 42.300781 15.800781 L 1.9003906 56.099609 C 1.0003906 56.999609 0.79921875 58.300391 1.1992188 59.400391 C 1.6992188 60.500391 2.8 61.299219 4 61.199219 L 17 61 L 20.900391 61 C 22.400391 61 23.7 62.000391 24 63.400391 C 24.4 65.300391 22.899609 67 21.099609 67 L 4.1992188 67 C 2.5992187 67 1.2 68.200781 1 69.800781 C 0.9 70.700781 1.3003906 71.599609 1.9003906 72.099609 L 42.400391 112.09961 C 43.000391 112.69961 43.7 113 44.5 113 C 45.3 113 46.200781 112.60039 46.800781 111.90039 C 47.800781 110.70039 47.7 108.79922 46.5 107.69922 L 12.199219 73.900391 C 11.899219 73.600391 12.099609 73 12.599609 73 L 21 73 C 24.7 73 27.799219 70.799609 29.199219 67.599609 C 29.399219 67.199609 29.699609 67 30.099609 67 L 116.69922 67 L 115.80078 67.900391 C 114.60078 69.100391 114.70039 70.999609 115.90039 72.099609 C 116.50039 72.699609 117.2 72.900391 118 72.900391 C 118.8 72.900391 119.59922 72.6 120.19922 72 L 126 66 C 127.1 64.9 127.1 63.100391 126 61.900391 L 120.19922 55.900391 C 118.99922 54.700391 117.1 54.700781 116 55.800781 C 114.8 57.000781 114.80039 58.9 115.90039 60 L 116.80078 60.900391 L 30.199219 60.900391 C 29.799219 60.900391 29.400781 60.600781 29.300781 60.300781 C 27.800781 57.200781 24.7 55 21 55 L 16.900391 55 L 12.599609 55.099609 C 12.099609 55.099609 11.899219 54.599219 12.199219 54.199219 L 46.400391 20.199219 C 47.400391 19.199219 47.700391 17.500781 46.900391 16.300781 C 46.350391 15.500781 45.525781 15.050391 44.675781 14.962891 z M 106.70312 71.550781 C 105.3209 71.582227 104.06328 72.6 103.80078 74 C 99.400781 97.3 60.400391 116.7 55.400391 118.5 C 53.900391 118.8 52.8 120.19922 53 121.69922 C 53.1 123.29922 54.300781 124.4 55.800781 124.5 C 58.000781 124.5 70.799609 118.00039 81.599609 110.40039 C 101.99961 96.000391 108.09922 83.299609 109.69922 75.099609 C 109.99922 73.499609 108.90078 71.899609 107.30078 71.599609 C 107.10078 71.562109 106.90059 71.546289 106.70312 71.550781 z"/>
</svg>